<svg class="icon" style="width: 1em;height: 1em;vertical-align: middle;fill: currentColor;overflow: hidden;" viewBox="0 0 1024 1024" version="1.1" xmlns="http://www.w3.org/2000/svg" p-id="3495"><path d="M695.3216 855.616h-98.6496a19.2 19.2 0 0 1-19.2-19.2v-116.608a19.2 19.2 0 0 1 19.2-19.2h98.6496v-103.3344a19.2 19.2 0 0 1 19.2-19.2h122.88a19.2 19.2 0 0 1 19.2 19.2v103.3472H934.4V57.6a19.2 19.2 0 1 1 38.4 0v662.2208a19.2 19.2 0 0 1-19.2 19.2h-96.9856v78.1952h95.2832a19.2 19.2 0 0 1 19.2 19.2V953.6a19.2 19.2 0 0 1-19.2 19.2h-114.4832a19.2 19.2 0 0 1-19.2-19.2v-97.984h-84.48V953.6a19.2 19.2 0 0 1-19.2 19.2H57.6a19.2 19.2 0 1 1 0-38.4h637.7216v-78.784z m0-116.608h-79.4496v78.208h79.4496v-78.208zM856.6016 934.4h76.096v-78.784h-76.0832V934.4z m-38.4-233.7792v-84.1472h-84.48v84.1472h84.48z m-84.48 38.4v78.1952h84.48v-78.208h-84.48z" fill="#76CFC7" p-id="3496"></path></svg>